<?xml version="1.0" encoding="UTF-8"?>
<svg width="400" height="300" viewBox="0 0 400 300" fill="none" xmlns="http://www.w3.org/2000/svg">
  <!-- Two people interacting with interface -->
  <g transform="translate(50, 50)">
    <!-- Person 1 -->
    <g transform="translate(0, 0)">
      <circle cx="30" cy="30" r="20" fill="#333"/>
      <rect x="10" y="60" width="40" height="80" rx="10" fill="#FFD700"/>
      <path d="M20 100 L0 130" stroke="#333" stroke-width="4"/>
      <path d="M40 100 L60 130" stroke="#333" stroke-width="4"/>
    </g>
    
    <!-- Interface -->
    <g transform="translate(100, 20)">
      <rect x="0" y="0" width="200" height="150" rx="10" fill="#FFD700" opacity="0.2"/>
      <rect x="20" y="20" width="160" height="20" rx="5" fill="#FFD700"/>
      <rect x="20" y="60" width="160" height="20" rx="5" fill="#FFD700"/>
      <rect x="20" y="100" width="160" height="20" rx="5" fill="#FFD700"/>
    </g>
    
    <!-- Person 2 -->
    <g transform="translate(250, 0)">
      <circle cx="30" cy="30" r="20" fill="#333"/>
      <rect x="10" y="60" width="40" height="80" rx="10" fill="#FFD700"/>
      <path d="M20 100 L0 130" stroke="#333" stroke-width="4"/>
      <path d="M40 100 L60 130" stroke="#333" stroke-width="4"/>
    </g>
  </g>
</svg>
