<?xml version="1.0" encoding="UTF-8"?>
<svg width="400" height="500" viewBox="0 0 400 500" fill="none" xmlns="http://www.w3.org/2000/svg">
  <!-- Phone -->
  <rect x="100" y="50" width="200" height="400" rx="20" fill="#F3F4F6"/>
  <rect x="110" y="60" width="180" height="380" rx="15" fill="white"/>
  
  <!-- Lock Icon -->
  <g transform="translate(250, 100)">
    <rect x="-20" y="0" width="40" height="30" rx="5" fill="#FFD700"/>
    <path d="M-10 0 V-10 A10 10 0 0 1 10 -10 V0" stroke="#FFB800" stroke-width="3" fill="none"/>
  </g>
  
  <!-- Person -->
  <g transform="translate(150, 300)">
    <circle cx="0" cy="-40" r="20" fill="#333"/>
    <rect x="-25" y="-20" width="50" height="70" rx="10" fill="#FFD700"/>
    <path d="M-20 30 L-30 60" stroke="#333" stroke-width="3"/>
    <path d="M20 30 L30 60" stroke="#333" stroke-width="3"/>
  </g>
  
  <!-- Decorative Elements -->
  <circle cx="50" cy="200" r="10" fill="#FFD700" opacity="0.3"/>
  <circle cx="350" cy="300" r="15" fill="#FFD700" opacity="0.3"/>
  <path d="M30 250 L70 250" stroke="#FFD700" stroke-width="3"/>
  <path d="M330 150 L370 150" stroke="#FFD700" stroke-width="3"/>
</svg>
